Coordinates
version=1
nRows=41
nColumns=38
inDegrees=no

Units are S.I. units (second, meters, Newtons, ...)
If the header above contains a line with 'inDegrees', this indicates whether rotational values are in degrees (yes) or radians (no).

endheader
time	pelvis_tilt	pelvis_list	pelvis_rotation	pelvis_tx	pelvis_ty	pelvis_tz	hip_flexion_r	hip_adduction_r	hip_rotation_r	knee_angle_r	ankle_angle_r	subtalar_angle_r	mtp_angle_r	hip_flexion_l	hip_adduction_l	hip_rotation_l	knee_angle_l	ankle_angle_l	subtalar_angle_l	mtp_angle_l	lumbar_extension	lumbar_bending	lumbar_rotation	arm_flex_r	arm_add_r	arm_rot_r	elbow_flex_r	pro_sup_r	wrist_flex_r	wrist_dev_r	arm_flex_l	arm_add_l	arm_rot_l	elbow_flex_l	pro_sup_l	wrist_flex_l	wrist_dev_l
30	-0.259203	1.27514	1.80169	0.747326	0.0614702	0.880796	0.86738	-0.14902	0.0778248	1.13947	0.396852	0	0	0.805896	0.0661713	0.00170354	1.02826	-0.698132	0	0	-0.262824	-0.0537609	0.0302415	0.225138	-0.252878	0.120159	0.364587	1.40795	0	0	0.298583	-0.238491	0.28437	0.370759	1.4712	0	0
30.01	-0.265076	1.27664	1.80533	0.74745	0.0621258	0.884935	0.856267	-0.151407	0.0740651	1.12155	0.389563	0	0	0.792219	0.0676473	0.00377218	1.00634	-0.698132	0	0	-0.257982	-0.0553801	0.0314252	0.225146	-0.253215	0.122609	0.363241	1.40997	0	0	0.296675	-0.237837	0.283382	0.370514	1.47368	0	0
30.02	-0.270479	1.27805	1.8087	0.747599	0.0627796	0.889026	0.845198	-0.153649	0.0701534	1.10357	0.382162	0	0	0.778519	0.0682612	0.00430065	0.984036	-0.698132	0	0	-0.253035	-0.0567724	0.0324965	0.225274	-0.253469	0.125945	0.361619	1.41093	0	0	0.294864	-0.237114	0.28238	0.37028	1.47637	0	0
30.03	-0.275055	1.27977	1.81086	0.747797	0.0635024	0.893056	0.833833	-0.155305	0.0660698	1.0857	0.374763	0	0	0.764625	0.0681982	0.00461261	0.962098	-0.698132	0	0	-0.248139	-0.0577171	0.0341849	0.225095	-0.253782	0.128995	0.360057	1.41218	0	0	0.293027	-0.236116	0.281464	0.369982	1.47893	0	0
30.04	-0.273417	1.27838	1.80299	0.748215	0.0636569	0.89704	0.827594	-0.148663	0.072708	1.06726	0.362554	0	0	0.754852	0.0648744	0.00387951	0.939228	-0.698132	0	0	-0.24041	-0.0577747	0.0401756	0.225658	-0.254856	0.131013	0.358242	1.41312	0	0	0.292341	-0.233536	0.279867	0.3684	1.48205	0	0
30.05	-0.276018	1.28094	1.80288	0.748516	0.0644404	0.901032	0.815128	-0.148717	0.0695878	1.04895	0.354977	0	0	0.740429	0.0622071	1.7954e-05	0.917641	-0.698132	0	0	-0.236236	-0.0576713	0.0430135	0.225078	-0.255039	0.131682	0.356505	1.41386	0	0	0.291387	-0.232103	0.280722	0.367699	1.48533	0	0
30.06	-0.278317	1.28395	1.80246	0.748857	0.065293	0.905033	0.801872	-0.148336	0.0666275	1.03041	0.347673	0	0	0.725631	0.0581084	-0.00703235	0.896145	-0.698132	0	0	-0.232537	-0.057308	0.0461697	0.224123	-0.255081	0.131304	0.355043	1.41444	0	0	0.29062	-0.230646	0.282584	0.367066	1.48805	0	0
30.07	-0.283077	1.28678	1.80499	0.74912	0.0661696	0.909041	0.788504	-0.149254	0.06314	1.01161	0.340358	0	0	0.710501	0.0563589	-0.0110167	0.873676	-0.698132	0	0	-0.228883	-0.0576129	0.0489189	0.222667	-0.254764	0.129665	0.353554	1.4167	0	0	0.290186	-0.229257	0.284311	0.365833	1.49127	0	0
30.08	-0.286379	1.28886	1.80666	0.74933	0.0670085	0.912907	0.775967	-0.150645	0.0583984	0.99269	0.332907	0	0	0.695503	0.0557307	-0.01216	0.849769	-0.698132	0	0	-0.224108	-0.0574935	0.0514916	0.220361	-0.254451	0.126842	0.352436	1.42087	0	0	0.289502	-0.227831	0.286296	0.364635	1.49356	0	0
30.09	-0.277653	1.28963	1.79671	0.749583	0.0677959	0.91626	0.765659	-0.149101	0.0520633	0.974381	0.325457	0	0	0.679418	0.0510792	-0.016365	0.820019	-0.698132	0	0	-0.21581	-0.0538261	0.0549326	0.216296	-0.255292	0.123535	0.352528	1.42536	0	0	0.287214	-0.225744	0.288032	0.363537	1.49504	0	0
30.1	-0.253438	1.28846	1.77173	0.749865	0.0685397	0.918868	0.758657	-0.143076	0.045183	0.957695	0.318476	0	0	0.66237	0.0415425	-0.0243584	0.783028	-0.698132	0	0	-0.202904	-0.0455151	0.059163	0.210219	-0.258017	0.122467	0.354002	1.42749	0	0	0.28234	-0.222949	0.289105	0.363267	1.49596	0	0
30.11	-0.25327	1.28972	1.77091	0.74994	0.0694059	0.922318	0.747205	-0.144115	0.0402448	0.939091	0.311048	0	0	0.641633	0.0430366	-0.0195599	0.745478	-0.698132	0	0	-0.195956	-0.0441942	0.0609922	0.20684	-0.258281	0.118425	0.35407	1.4343	0	0	0.27988	-0.221806	0.290317	0.363096	1.49916	0	0
30.12	-0.261267	1.29135	1.77859	0.749977	0.0702601	0.925991	0.734855	-0.147856	0.0354647	0.919967	0.30373	0	0	0.623821	0.0478869	-0.0102389	0.714694	-0.698132	0	0	-0.191128	-0.0455537	0.061371	0.205172	-0.257297	0.113042	0.352785	1.44148	0	0	0.278154	-0.221484	0.289506	0.363051	1.50448	0	0
30.13	-0.27207	1.29309	1.78871	0.750035	0.0711302	0.929646	0.722395	-0.152234	0.0305538	0.901025	0.296311	0	0	0.605485	0.0534808	0.00051626	0.683423	-0.698132	0	0	-0.186692	-0.0479233	0.0617612	0.203855	-0.25609	0.107466	0.351207	1.44838	0	0	0.276513	-0.221487	0.288047	0.362944	1.51001	0	0
30.14	-0.283633	1.29473	1.79929	0.750135	0.0720145	0.93319	0.71018	-0.156577	0.0258395	0.882394	0.288993	0	0	0.585938	0.0593986	0.0134774	0.649758	-0.698132	0	0	-0.182077	-0.0506512	0.062392	0.202388	-0.25465	0.100518	0.34973	1.45647	0	0	0.274712	-0.22171	0.286619	0.362814	1.51517	0	0
30.15	-0.290617	1.29652	1.8046	0.750413	0.0729426	0.936517	0.698146	-0.158737	0.0214414	0.864075	0.281885	0	0	0.567954	0.0612708	0.018412	0.619057	-0.698132	0	0	-0.176704	-0.0521397	0.0639836	0.200141	-0.253921	0.0977388	0.34924	1.45856	0	0	0.27223	-0.222168	0.286901	0.363117	1.51738	0	0
30.16	-0.310765	1.29768	1.8251	0.75027	0.0737872	0.940028	0.686092	-0.166963	0.0157059	0.845866	0.274631	0	0	0.542812	0.0737164	0.050409	0.574011	-0.698132	0	0	-0.172963	-0.0573235	0.0624277	0.199198	-0.251624	0.0901482	0.347494	1.46802	0	0	0.271318	-0.22318	0.286477	0.36267	1.52398	0	0
30.17	-0.309741	1.28562	1.8103	0.750203	0.0722628	0.943717	0.701385	-0.168173	0.0108219	0.833752	0.250338	0	0	0.530273	0.0800991	0.0953422	0.516927	-0.698132	0	0	-0.158341	-0.0588909	0.0746424	0.202622	-0.254373	0.0866215	0.345584	1.47451	0	0	0.27323	-0.216247	0.274689	0.356736	1.53597	0	0
30.18	-0.31095	1.28658	1.81015	0.750569	0.0732115	0.946565	0.69084	-0.169272	0.00452186	0.816781	0.244398	0	0	0.514334	0.0791244	0.0997735	0.487604	-0.698132	0	0	-0.151478	-0.05893	0.0759625	0.199476	-0.253517	0.0853436	0.345756	1.47629	0	0	0.270313	-0.216725	0.274485	0.356181	1.53881	0	0
30.19	-0.321159	1.28881	1.81924	0.750813	0.0742189	0.949684	0.678062	-0.173274	-0.0020062	0.799034	0.238642	0	0	0.489575	0.0829291	0.121327	0.444528	-0.698132	0	0	-0.147513	-0.0614214	0.0763197	0.19741	-0.251846	0.0831837	0.345617	1.4789	0	0	0.268678	-0.217566	0.274626	0.355253	1.54243	0	0
30.2	-0.341464	1.29166	1.83878	0.750856	0.0752461	0.95302	0.663969	-0.180746	-0.00860764	0.780925	0.232718	0	0	0.453351	0.0918227	0.17277	0.381404	-0.698132	0	0	-0.146038	-0.0666925	0.0754792	0.19657	-0.249263	0.0797188	0.344651	1.48298	0	0	0.268342	-0.218635	0.274441	0.353504	1.54665	0	0
30.21	-0.438345	1.30764	1.92203	0.751633	0.0778667	0.958771	0.629815	-0.200048	-0.00776122	0.759411	0.228075	0	0	0.23893	0.0664558	0.698132	0	-0.698132	0	0	-0.167898	-0.0912015	0.0816904	0.202854	-0.240554	0.0630494	0.337965	1.5016	0	0	0.274242	-0.221774	0.269297	0.348969	1.5591	0	0
30.22	-0.120672	1.33788	1.56437	0.758653	0.0833416	0.955039	0.59552	-0.0827541	-0.00778393	0.745489	0.238543	0	0	0.327933	-0.0266757	-0.0731492	0.260001	0.523599	0	0	-0.147302	0.00177053	0.14587	0.164404	-0.283183	0.153937	0.373284	1.38055	0	0	0.239776	-0.218383	0.398463	0.373886	1.33273	0	0
30.23	-0.377699	1.31322	1.86366	0.752147	0.0794468	0.962505	0.609096	-0.186471	-0.0311266	0.727643	0.215549	0	0	0.239158	0.0514808	0.698132	0	-0.698132	0	0	-0.151551	-0.0704182	0.0816289	0.197625	-0.242606	0.0632145	0.33823	1.50822	0	0	0.267037	-0.218694	0.267162	0.344501	1.56616	0	0
30.24	-0.350385	1.31387	1.83954	0.752291	0.0799439	0.964291	0.600377	-0.181026	-0.0412759	0.712396	0.209637	0	0	0.238642	0.0439855	0.698132	0	-0.698132	0	0	-0.142111	-0.0621559	0.0803606	0.194466	-0.242794	0.0654033	0.337826	1.50695	0	0	0.264136	-0.218003	0.268179	0.342207	1.56543	0	0
30.25	-0.324332	1.31443	1.81698	0.752538	0.0805669	0.96603	0.591712	-0.17595	-0.0513788	0.697484	0.204107	0	0	0.238059	0.0370885	0.698132	0	-0.698132	0	0	-0.133137	-0.054191	0.0786445	0.191825	-0.242992	0.0676792	0.337058	1.50454	0	0	0.261622	-0.217297	0.270337	0.339665	1.56348	0	0
30.26	-0.331877	1.32606	1.83814	0.7529	0.0833068	0.967481	0.556849	-0.177493	-0.0574524	0.670534	0.211853	0	0	0.220982	0.0384365	0.698132	0	-0.698132	0	0	-0.134523	-0.0540666	0.0661133	0.186111	-0.238131	0.0710766	0.336266	1.49909	0	0	0.257522	-0.224224	0.280489	0.341067	1.5611	0	0
30.27	-0.307206	1.32639	1.81715	0.753225	0.0839256	0.969061	0.548563	-0.172597	-0.0662522	0.655583	0.206001	0	0	0.220664	0.0323641	0.698132	0	-0.698132	0	0	-0.125992	-0.0470703	0.0640214	0.184551	-0.2381	0.0760506	0.333773	1.49542	0	0	0.256088	-0.22335	0.281412	0.336999	1.56225	0	0
30.28	-0.283371	1.32639	1.79647	0.753481	0.0844392	0.970562	0.540509	-0.167405	-0.0740663	0.640176	0.200079	0	0	0.220547	0.0264366	0.698132	0	-0.698132	0	0	-0.117597	-0.040377	0.0624721	0.183129	-0.238064	0.0811586	0.331114	1.48879	0	0	0.255063	-0.222336	0.282562	0.33257	1.56371	0	0
30.29	-0.261526	1.32614	1.77728	0.753786	0.0849158	0.971991	0.532811	-0.162272	-0.0808943	0.624835	0.194035	0	0	0.220498	0.020965	0.698132	0	-0.698132	0	0	-0.109364	-0.0344094	0.061577	0.181635	-0.237823	0.0853594	0.328583	1.4799	0	0	0.254372	-0.221358	0.283883	0.328163	1.56521	0	0
30.3	-0.241196	1.32581	1.75939	0.754117	0.0853824	0.973351	0.525324	-0.157214	-0.0870924	0.609826	0.188076	0	0	0.220373	0.0158185	0.698132	0	-0.698132	0	0	-0.101332	-0.0289641	0.0609316	0.180139	-0.237199	0.0881617	0.32616	1.46949	0	0	0.253568	-0.220616	0.285262	0.324393	1.56685	0	0
30.31	-0.222768	1.32565	1.74318	0.754457	0.0858679	0.974639	0.517768	-0.152247	-0.0923552	0.59525	0.18239	0	0	0.219858	0.0110356	0.698131	0	-0.698132	0	0	-0.0937539	-0.0241151	0.0604352	0.178574	-0.236306	0.0901302	0.324214	1.45855	0	0	0.252614	-0.220168	0.287067	0.320917	1.56884	0	0
30.32	-0.204948	1.32675	1.72624	0.754998	0.0864843	0.975862	0.508903	-0.146192	-0.0977719	0.581968	0.176994	0	0	0.217026	0.00515469	0.698002	0	-0.698132	0	0	-0.0854228	-0.0207249	0.0605554	0.176054	-0.233591	0.0921861	0.322053	1.44901	0	0	0.250332	-0.221379	0.288702	0.317517	1.57071	0	0
30.33	-0.189632	1.32692	1.71202	0.755551	0.0870858	0.976992	0.501474	-0.141408	-0.102228	0.568491	0.17177	0	0	0.215696	0.00066983	0.697865	0	-0.698132	0	0	-0.0780489	-0.0172905	0.0605096	0.174614	-0.231921	0.0940393	0.319896	1.44122	0	0	0.248438	-0.221653	0.289678	0.315045	1.5708	0	0
30.34	0.0227944	1.35138	1.44657	0.761161	0.0946389	0.974299	0.460801	-0.0610688	-0.0774284	0.547235	0.186387	0	0	0.22111	-0.0467044	-0.155668	0.0790991	0.523599	0	0	-0.0784889	0.0458076	0.124912	0.144828	-0.267371	0.129979	0.346958	1.41949	0	0	0.223693	-0.203777	0.323759	0.321189	1.52124	0	0
30.35	0.0320778	1.3514	1.43777	0.761478	0.0952301	0.97539	0.453129	-0.0587648	-0.081458	0.533687	0.181449	0	0	0.215618	-0.0482018	-0.159147	0.0690942	0.523599	0	0	-0.0729896	0.0483667	0.124547	0.143465	-0.265931	0.130924	0.345815	1.41477	0	0	0.221807	-0.203356	0.320257	0.31864	1.52622	0	0
30.36	0.0416762	1.35143	1.42845	0.761809	0.0958318	0.976419	0.445398	-0.0563417	-0.0854402	0.519965	0.176679	0	0	0.210444	-0.0498677	-0.162365	0.0600022	0.523599	0	0	-0.067416	0.0510904	0.124057	0.141724	-0.264746	0.132408	0.345552	1.40909	0	0	0.219501	-0.202914	0.315962	0.316625	1.5322	0	0
30.37	0.0507105	1.35148	1.41953	0.762135	0.0963985	0.977394	0.437888	-0.0540456	-0.0895383	0.50677	0.172394	0	0	0.205419	-0.0514633	-0.164948	0.0513672	0.523599	0	0	-0.062121	0.053669	0.123511	0.139798	-0.264041	0.134224	0.346104	1.40382	0	0	0.217029	-0.202527	0.311204	0.315194	1.53855	0	0
30.38	0.0606623	1.35158	1.40993	0.76246	0.0970346	0.978323	0.430076	-0.0517125	-0.0943022	0.493414	0.168003	0	0	0.20028	-0.0532557	-0.167198	0.0429118	0.523599	0	0	-0.0565497	0.0565614	0.12242	0.137219	-0.263808	0.137078	0.347627	1.39784	0	0	0.214011	-0.201798	0.304226	0.313417	1.5471	0	0
30.39	0.0704921	1.3517	1.40021	0.762817	0.097602	0.979211	0.422599	-0.0492964	-0.098807	0.480569	0.16349	0	0	0.195193	-0.0550928	-0.169079	0.0346169	0.523599	0	0	-0.0515141	0.0593973	0.121493	0.134487	-0.263631	0.139315	0.34968	1.39226	0	0	0.211032	-0.201049	0.297412	0.312135	1.55535	0	0
30.4	0.0812759	1.35173	1.38933	0.763212	0.0981547	0.980056	0.415151	-0.0465215	-0.103443	0.467556	0.158714	0	0	0.190044	-0.0572269	-0.170576	0.026243	0.523599	0	0	-0.0464359	0.0624538	0.120696	0.131554	-0.263556	0.141224	0.351956	1.38744	0	0	0.2079	-0.200266	0.291126	0.310905	1.56376	0	0
